<svg t="1733827807337" class="icon" viewBox="0 0 1024 1024" version="1.1" xmlns="http://www.w3.org/2000/svg" p-id="11712" width="200" height="200"><path d="M477.3376 989.8496A84.224 84.224 0 0 1 392.9088 906.24l-0.3584-59.904c-165.888 36.1472-200.9088-70.5024-200.9088-70.5024-27.136-69.0688-66.2016-87.3984-66.2016-87.3984-54.1184-37.12 4.096-36.352 4.096-36.352 59.8016 4.1472 91.3408 61.5424 91.3408 61.5424 53.1968 91.3408 139.52 64.9728 173.568 49.664 5.3248-38.6048 20.7872-64.9216 37.888-79.872-132.5056-15.104-271.7184-66.3552-271.7184-295.2704 0-65.2288 23.2448-118.528 61.44-160.3584-6.144-15.0528-26.624-75.776 5.7856-158.1056 0 0 50.0736-16.0256 164.0448 61.2352 48.64-13.2608 98.816-19.968 149.248-20.0704 50.688 0.2048 101.6832 6.8096 149.3504 20.0704 113.8688-77.2608 163.84-61.2352 163.84-61.2352 32.512 82.3296 12.0832 143.0528 5.888 158.1056C898.4576 269.568 921.6 322.8672 921.6 388.096c0 229.4784-139.52 280.0128-272.2816 294.8096 21.3504 18.5344 40.448 54.8352 40.448 110.592 0 79.9744-0.3072 112.64-0.3072 112.64a84.224 84.224 0 0 1-84.3264 83.712H477.3376z" fill="#1D1929" p-id="11713"></path></svg>
